<?xml version="1.0" encoding="UTF-8"?>
<svg width="73px" height="73px" viewBox="0 0 73 73" version="1.1"
     xmlns="http://www.w3.org/2000/svg"
>
  <g id="Page-1" stroke="none" stroke-width="1" fill="none" fill-rule="evenodd">
    <path
      d="M0.179688,36.9195 C0.179688,17.0789 16.4859,0.845642 36.4156,0.845642 C56.3454,0.845642 72.6516,17.0789 72.6516,36.9195 C72.6516,56.7601 56.3454,72.9933 36.4156,72.9933 C16.4859,72.9933 0.179688,56.7601 0.179688,36.9195 Z M27.9887,31.4664 C27.9887,34.4781 25.5363,36.9195 22.5111,36.9195 C19.486,36.9195 17.0336,34.4781 17.0336,31.4664 C17.0336,28.4548 19.486,26.0134 22.5111,26.0134 C25.5363,26.0134 27.9887,28.4548 27.9887,31.4664 Z M50.3201,36.9195 C53.3453,36.9195 55.7977,34.4781 55.7977,31.4664 C55.7977,28.4548 53.3453,26.0134 50.3201,26.0134 C47.295,26.0134 44.8426,28.4548 44.8426,31.4664 C44.8426,34.4781 47.295,36.9195 50.3201,36.9195 Z M43.6996,45.859 C44.9497,44.9439 46.7195,45.1961 47.6523,46.4222 C48.5854,47.6483 48.3282,49.384 47.0779,50.2991 C41.0324,54.831 32.6413,54.831 26.5958,50.2991 C26.5417,50.2595 26.4891,50.2181 26.4381,50.1747 C25.258,49.1744 25.1281,47.4251 26.1482,46.2677 C27.1681,45.1103 28.9517,44.9829 30.1318,45.9833 C34.1259,48.8445 39.5478,48.8445 43.5419,45.9833 C43.5931,45.94 43.6455,45.8986 43.6996,45.859 Z"
      id="Shape" fill="#FFFFFF"></path>
  </g>
</svg>
