<svg width="72" height="72" viewBox="0 0 72 72" fill="none"
     xmlns="http://www.w3.org/2000/svg">
  <path fill-rule="evenodd" clip-rule="evenodd"
        d="M36 72C55.8823 72 72 55.8823 72 36C72 16.1177 55.8823 0 36 0C16.1177 0 0 16.1177 0 36C0 55.8823 16.1177 72 36 72Z"
        fill="url(#paint0_linear)"/>
  <g opacity="0.85">
    <path
      d="M16.234 22.6182L25.3489 29.0005C26.2373 29.6226 26.4532 30.847 25.8312 31.7354C25.2091 32.6237 23.9847 32.8396 23.0963 32.2176L13.9814 25.8352L16.234 22.6182Z"
      fill="black"/>
    <path fill-rule="evenodd" clip-rule="evenodd"
          d="M13.6043 34.4721L23.2408 28.9085C24.18 28.3663 25.3809 28.688 25.9232 29.6272C26.4654 30.5664 26.1436 31.7674 25.2044 32.3096L15.5679 37.8733L13.6043 34.4721Z"
          fill="black"/>
  </g>
  <g opacity="0.85">
    <path
      d="M55.4376 22.2898L46.3226 28.6721C45.4343 29.2941 45.2184 30.5185 45.8404 31.4069C46.4624 32.2953 47.6869 32.5112 48.5752 31.8891L57.6902 25.5068L55.4376 22.2898Z"
      fill="black"/>
    <path fill-rule="evenodd" clip-rule="evenodd"
          d="M58.0673 34.1437L48.4308 28.5801C47.4916 28.0378 46.2906 28.3596 45.7484 29.2988C45.2061 30.238 45.5279 31.4389 46.4671 31.9812L56.1036 37.5448L58.0673 34.1437Z"
          fill="black"/>
  </g>
  <g opacity="0.85">
    <path fill-rule="evenodd" clip-rule="evenodd"
          d="M19.5524 52.7659C18.8601 51.9409 18.959 50.7005 19.7839 50.0082L24.8189 45.7833C25.6439 45.0911 26.8827 45.2091 27.5749 46.0341C28.2672 46.8591 28.1683 48.0995 27.3434 48.7918L22.3084 53.0167C21.4834 53.7089 20.2446 53.5909 19.5524 52.7659Z"
          fill="black"/>
    <path fill-rule="evenodd" clip-rule="evenodd"
          d="M32.5842 52.7659C31.8919 53.5909 30.6532 53.7089 29.8282 53.0167L24.7932 48.7918C23.9682 48.0995 23.8693 46.8591 24.5616 46.0341C25.2538 45.2091 26.4926 45.0911 27.3176 45.7833L32.3526 50.0082C33.1776 50.7005 33.2764 51.9409 32.5842 52.7659Z"
          fill="black"/>
    <path fill-rule="evenodd" clip-rule="evenodd"
          d="M29.6978 52.7659C29.0056 51.9409 29.1044 50.7005 29.9294 50.0082L34.9644 45.7833C35.7894 45.0911 37.0281 45.2091 37.7204 46.0341C38.4126 46.8591 38.3138 48.0995 37.4888 48.7918L32.4538 53.0167C31.6288 53.7089 30.3901 53.5909 29.6978 52.7659Z"
          fill="black"/>
    <path fill-rule="evenodd" clip-rule="evenodd"
          d="M42.7296 52.7659C42.0374 53.5909 40.7986 53.7089 39.9736 53.0167L34.9386 48.7918C34.1136 48.0995 34.0148 46.8591 34.707 46.0341C35.3993 45.2091 36.638 45.0911 37.463 45.7833L42.498 50.0082C43.323 50.7005 43.4219 51.9409 42.7296 52.7659Z"
          fill="black"/>
    <path fill-rule="evenodd" clip-rule="evenodd"
          d="M39.7778 52.7659C39.0856 51.9409 39.1844 50.7005 40.0094 50.0082L45.0444 45.7833C45.8694 45.0911 47.1081 45.2091 47.8004 46.0341C48.4927 46.8591 48.3938 48.0995 47.5688 48.7918L42.5338 53.0167C41.7088 53.7089 40.4701 53.5909 39.7778 52.7659Z"
          fill="black"/>
    <path fill-rule="evenodd" clip-rule="evenodd"
          d="M52.8096 52.7659C52.1174 53.5909 50.8786 53.7089 50.0536 53.0167L45.0186 48.7918C44.1936 48.0995 44.0948 46.8591 44.7871 46.0341C45.4793 45.2091 46.718 45.0911 47.543 45.7833L52.578 50.0082C53.403 50.7005 53.5019 51.9409 52.8096 52.7659Z"
          fill="black"/>
  </g>
  <defs>
    <linearGradient id="paint0_linear" x1="15.2706" y1="50.7876" x2="44.8457"
                    y2="92.2464" gradientUnits="userSpaceOnUse">
      <stop stop-color="#FEE339"/>
      <stop offset="1" stop-color="#FFD21E"/>
    </linearGradient>
  </defs>
</svg>
