<svg width="72" height="72" viewBox="0 0 72 72" fill="none"
     xmlns="http://www.w3.org/2000/svg">
  <path fill-rule="evenodd" clip-rule="evenodd"
        d="M36 72C55.8823 72 72 55.8823 72 36C72 16.1177 55.8823 0 36 0C16.1177 0 0 16.1177 0 36C0 55.8823 16.1177 72 36 72Z"
        fill="url(#paint0_linear)"/>
  <mask id="mask0" mask-type="alpha" maskUnits="userSpaceOnUse" x="11" y="41"
        width="50" height="28">
    <rect x="11.7818" y="41.8909" width="48.4364" height="26.1818"
          fill="white"/>
  </mask>
  <g mask="url(#mask0)">
    <path fill-rule="evenodd" clip-rule="evenodd"
          d="M36 64.1455C49.3753 64.1455 60.2182 54.1818 60.2182 41.8909C60.2182 29.6001 49.3753 19.6364 36 19.6364C22.6246 19.6364 11.7818 29.6001 11.7818 41.8909C11.7818 54.1818 22.6246 64.1455 36 64.1455Z"
          fill="white"/>
  </g>
  <path fill-rule="evenodd" clip-rule="evenodd"
        d="M27.2279 28.8931C28.3776 27.9326 29.1091 26.4881 29.1091 24.8727C29.1091 21.9808 26.7647 19.6364 23.8727 19.6364C22.3087 19.6364 20.9049 20.322 19.9454 21.4091C18.9859 20.322 17.5821 19.6364 16.0182 19.6364C13.1262 19.6364 10.7818 21.9808 10.7818 24.8727C10.7818 26.4731 11.4997 27.9058 12.6311 28.8663L18.9794 34.9199C19.2188 35.1814 19.563 35.3455 19.9454 35.3455C20.3314 35.3455 20.6783 35.1785 20.9179 34.9128L27.2279 28.8931Z"
        fill="#FF4444"/>
  <path fill-rule="evenodd" clip-rule="evenodd"
        d="M59.337 28.8931C60.4867 27.9326 61.2181 26.4881 61.2181 24.8727C61.2181 21.9808 58.8737 19.6364 55.9818 19.6364C54.4178 19.6364 53.014 20.322 52.0545 21.4091C51.095 20.322 49.6912 19.6364 48.1272 19.6364C45.2353 19.6364 42.8909 21.9808 42.8909 24.8727C42.8909 26.4731 43.6088 27.9058 44.7401 28.8663L51.0885 34.9199C51.3279 35.1814 51.672 35.3455 52.0545 35.3455C52.4404 35.3455 52.7873 35.1785 53.0269 34.9128L59.337 28.8931Z"
        fill="#FF4444"/>
  <defs>
    <linearGradient id="paint0_linear" x1="15.2706" y1="50.7876" x2="44.8457"
                    y2="92.2464" gradientUnits="userSpaceOnUse">
      <stop stop-color="#FEE339"/>
      <stop offset="1" stop-color="#FFD21E"/>
    </linearGradient>
  </defs>
</svg>
